<svg width="45" height="45" viewBox="0 0 45 45" fill="none" xmlns="http://www.w3.org/2000/svg">
<path d="M13.0845 0.156679C10.7078 0.268353 9.08477 0.648042 7.66838 1.20455C6.17887 1.76878 4.82994 2.65029 3.71514 3.78793C2.5822 4.9058 1.70581 6.2566 1.14666 7.74675C0.597594 9.16872 0.223488 10.7954 0.11926 13.1704C0.0150314 15.5453 -0.00916453 16.3121 0.00200281 22.3778C0.0131701 28.4436 0.0410885 29.2029 0.156484 31.5853C0.270019 33.9621 0.647847 35.5851 1.20435 37.0033C1.77761 38.4718 2.54443 39.7151 3.78773 40.9547C4.90669 42.0881 6.25879 42.9645 7.75028 43.5232C9.17039 44.0723 10.7952 44.4464 13.172 44.5506C15.5507 44.6548 16.3156 44.679 22.3795 44.6678C28.4434 44.6567 29.2065 44.6288 31.587 44.5152C33.9693 44.4035 35.583 44.022 37.0031 43.4674C38.492 42.9029 39.8402 42.0214 40.9545 40.884C42.0879 39.765 42.9643 38.4129 43.523 36.9214C44.072 35.5013 44.4462 33.8765 44.5485 31.5015C44.6527 29.1192 44.6788 28.3561 44.6658 22.2922C44.6546 16.2283 44.6286 15.4671 44.515 13.0847C44.4033 10.7024 44.0237 9.08683 43.4653 7.66672C42.9014 6.17804 42.0205 4.82978 40.8838 3.71534C39.7654 2.58217 38.4139 1.70576 36.9231 1.14685C35.5011 0.599651 33.8781 0.223683 31.4995 0.123177C29.1227 0.0170877 28.3577 -0.0108307 22.292 0.000336635C16.2263 0.011504 15.4669 0.0394223 13.0845 0.156679ZM13.3451 40.5322C11.1675 40.4391 9.98561 40.0762 9.19831 39.7728C8.22667 39.4178 7.3475 38.8484 6.6261 38.107C5.88225 37.3887 5.30972 36.5121 4.951 35.5423C4.64389 34.755 4.27537 33.5731 4.17487 31.3955C4.06319 29.0429 4.04086 28.3356 4.02597 22.3722C4.0148 16.4089 4.03713 15.7035 4.1395 13.349C4.23256 11.1733 4.59736 9.98952 4.89888 9.20223C5.30091 8.15808 5.78668 7.41545 6.56468 6.63001C7.28353 5.88594 8.16079 5.31339 9.1313 4.95491C9.9186 4.64781 11.0986 4.28301 13.2762 4.17878C15.6307 4.06711 16.3361 4.04478 22.2995 4.02989C28.261 4.01872 28.9682 4.04105 31.3264 4.14528C33.5003 4.23834 34.684 4.59942 35.4713 4.90466C36.5136 5.30668 37.2581 5.78874 38.0435 6.57046C38.829 7.35217 39.311 8.09108 39.7186 9.13522C40.0257 9.92066 40.3924 11.1007 40.4948 13.2802C40.6064 15.6346 40.6325 16.3419 40.6437 22.3034C40.653 28.2649 40.6325 28.9721 40.5301 31.3266C40.4352 33.5042 40.0741 34.6861 39.7708 35.4771C39.3687 36.5194 38.883 37.2639 38.1031 38.0456C37.3848 38.7895 36.5082 39.362 35.5383 39.7207C34.7529 40.0278 33.5692 40.3945 31.3953 40.4987C29.0389 40.6104 28.3335 40.6327 22.3683 40.6457C16.4031 40.6588 15.7014 40.6327 13.3451 40.5322ZM31.5535 10.3971C31.5542 10.9273 31.7122 11.4453 32.0073 11.8857C32.3025 12.3261 32.7217 12.669 33.2118 12.8712C33.702 13.0733 34.241 13.1255 34.7608 13.0212C35.2806 12.9169 35.7578 12.6608 36.1321 12.2853C36.5063 11.9097 36.7607 11.4316 36.8632 10.9115C36.9657 10.3913 36.9116 9.85244 36.7078 9.36302C36.504 8.8736 36.1596 8.45563 35.7182 8.16196C35.2768 7.8683 34.7582 7.71214 34.228 7.71325C33.5175 7.71473 32.8367 7.99826 32.3352 8.50154C31.8336 9.00481 31.5525 9.68663 31.5535 10.3971ZM10.8678 22.3574C10.8737 25.3988 12.0877 28.3134 14.2425 30.4599C16.3973 32.6063 19.3166 33.8089 22.3581 33.803C25.3996 33.797 28.3141 32.5831 30.4606 30.4283C32.6071 28.2734 33.8096 25.3542 33.8037 22.3127C33.7598 19.2963 32.5293 16.4186 30.3786 14.3031C28.228 12.1876 25.3304 11.0047 22.3137 11.0106C19.297 11.0164 16.4041 12.2107 14.2617 14.3345C12.1193 16.4584 10.8999 19.3408 10.8678 22.3574ZM14.8899 22.3499C14.887 20.8775 15.3207 19.4372 16.1364 18.2113C16.952 16.9853 18.1128 16.0288 19.472 15.4626C20.8313 14.8964 22.3279 14.7459 23.7726 15.0303C25.2174 15.3147 26.5453 16.0211 27.5886 17.0602C28.6319 18.0993 29.3436 19.4244 29.6337 20.868C29.9239 22.3116 29.7794 23.8088 29.2187 25.1703C28.6579 26.5318 27.706 27.6964 26.4834 28.5169C25.2607 29.3375 23.8222 29.777 22.3497 29.7799C21.372 29.7819 20.4035 29.5912 19.4995 29.2189C18.5955 28.8466 17.7737 28.2998 17.081 27.6099C16.3883 26.9199 15.8383 26.1003 15.4623 25.1978C15.0864 24.2953 14.8919 23.3276 14.8899 22.3499Z" fill="#2C2A40"/>
</svg>
