<svg width="45" height="37" viewBox="0 0 45 37" fill="none" xmlns="http://www.w3.org/2000/svg">
<path fill-rule="evenodd" clip-rule="evenodd" d="M22.7295 0.910156C24.634 0.910156 26.5876 0.959162 28.481 1.03935L30.7174 1.14628L32.8581 1.27325L34.8629 1.40912L36.6939 1.55169C38.681 1.70378 40.5508 2.55173 41.9743 3.94638C43.3979 5.34102 44.2841 7.19301 44.4769 9.17655L44.566 10.1232L44.7331 12.1503C44.889 14.2509 45.0048 16.5408 45.0048 18.7305C45.0048 20.9201 44.889 23.21 44.7331 25.3106L44.566 27.3377C44.5371 27.6629 44.5081 27.977 44.4769 28.2844C44.284 30.2682 43.3975 32.1205 41.9735 33.5152C40.5495 34.9099 38.6791 35.7576 36.6917 35.9092L34.8651 36.0495L32.8603 36.1877L30.7174 36.3146L28.481 36.4215C26.5649 36.5048 24.6473 36.5479 22.7295 36.5507C20.8116 36.5479 18.894 36.5048 16.978 36.4215L14.7415 36.3146L12.6009 36.1877L10.5961 36.0495L8.76504 35.9092C6.77797 35.7571 4.90818 34.9092 3.4846 33.5145C2.06103 32.1199 1.17488 30.2679 0.982028 28.2844L0.892926 27.3377L0.725861 25.3106C0.555538 23.1212 0.464892 20.9264 0.454102 18.7305C0.454102 16.5408 0.569933 14.2509 0.725861 12.1503L0.892926 10.1232C0.921884 9.79803 0.950842 9.48395 0.982028 9.17655C1.1748 7.19336 2.06064 5.34165 3.48376 3.94705C4.90687 2.55246 6.77614 1.70428 8.76281 1.55169L10.5916 1.40912L12.5964 1.27325L14.7393 1.14628L16.9757 1.03935C18.8925 0.956117 20.8109 0.913042 22.7295 0.910156ZM18.2744 13.3287V24.1322C18.2744 25.1614 19.3882 25.8029 20.2792 25.2905L29.6348 19.8888C29.8384 19.7716 30.0075 19.6028 30.1251 19.3995C30.2427 19.1961 30.3046 18.9654 30.3046 18.7305C30.3046 18.4956 30.2427 18.2648 30.1251 18.0614C30.0075 17.8581 29.8384 17.6893 29.6348 17.5721L20.2792 12.1726C20.0759 12.0552 19.8454 11.9935 19.6107 11.9935C19.376 11.9936 19.1455 12.0554 18.9423 12.1728C18.7391 12.2902 18.5704 12.459 18.4531 12.6623C18.3359 12.8656 18.2742 13.0962 18.2744 13.3309V13.3287Z" fill="#2C2A40"/>
</svg>
