<svg width="36" height="44" viewBox="0 0 36 44" fill="none" xmlns="http://www.w3.org/2000/svg">
<path d="M29.517 41.5339C27.2304 43.8324 24.7338 43.4694 22.3305 42.3807C19.7872 41.2677 17.454 41.2194 14.7707 42.3807C11.4108 43.8807 9.6375 43.4453 7.63089 41.5339C-3.75546 29.3641 -2.07551 10.8311 10.8508 10.1536C14.0007 10.323 16.194 11.944 18.0373 12.0892C20.7905 11.5085 23.4271 9.83912 26.367 10.0569C29.8903 10.3472 32.5502 11.7989 34.3002 14.4119C27.0204 18.9362 28.747 28.8802 35.4201 31.6625C34.0902 35.2917 32.3636 38.8967 29.4936 41.5581L29.517 41.5339ZM17.8039 10.0085C17.454 4.61311 21.6772 0.161331 26.5304 -0.27417C27.207 5.968 21.0705 10.6133 17.8039 10.0085Z" fill="black"/>
</svg>
