<svg width="39" height="40" viewBox="0 0 39 40" fill="none" xmlns="http://www.w3.org/2000/svg">
<path d="M13.5855 1.31495C9.68877 2.70141 6.32825 5.33297 3.99754 8.82308C1.66682 12.3132 0.488759 16.4779 0.636383 20.7055C0.784007 24.933 2.24954 29.0006 4.81772 32.3108C7.38589 35.6209 10.9213 37.9992 14.9048 39.0962C18.1342 39.9509 21.5177 39.9884 24.7645 39.2056C27.7057 38.528 30.4249 37.0786 32.6559 34.9993C34.9778 32.7692 36.6632 29.9321 37.5309 26.7931C38.4739 23.3795 38.6418 19.7897 38.0214 16.2993H19.8864V24.0149H30.389C30.1791 25.2455 29.7293 26.42 29.0665 27.4682C28.4037 28.5163 27.5416 29.4165 26.5316 30.1149C25.2492 30.985 23.8035 31.5705 22.2873 31.8337C20.7668 32.1237 19.2071 32.1237 17.6866 31.8337C16.1454 31.5069 14.6875 30.8545 13.4057 29.9181C11.3465 28.423 9.80027 26.2991 8.98774 23.8493C8.16147 21.3537 8.16147 18.6481 8.98774 16.1524C9.56612 14.4031 10.5222 12.8104 11.7848 11.4931C13.2296 9.95791 15.0587 8.86056 17.0716 8.32143C19.0844 7.78231 21.2031 7.82223 23.1953 8.43682C24.7516 8.9268 26.1747 9.78288 27.3513 10.9368C28.5355 9.72849 29.7177 8.51703 30.8978 7.30245C31.5072 6.64932 32.1714 6.02745 32.7716 5.3587C30.9757 3.64456 28.8676 2.31075 26.5682 1.4337C22.3809 -0.125709 17.7992 -0.167617 13.5855 1.31495Z" fill="white"/>
<path d="M13.5859 1.31537C17.7993 -0.168204 22.381 -0.1274 26.5686 1.43099C28.8685 2.314 30.9756 3.65424 32.769 5.37474C32.1596 6.04349 31.5168 6.66849 30.8952 7.31849C29.713 8.52891 28.5318 9.73516 27.3517 10.9372C26.1751 9.7833 24.752 8.92722 23.1957 8.43724C21.2042 7.8205 19.0856 7.77827 17.0722 8.31519C15.0588 8.85211 13.2285 9.94744 11.7821 11.481C10.5196 12.7983 9.56349 14.391 8.98512 16.1404L2.66895 11.1247C4.92975 6.5265 8.8442 3.00919 13.5859 1.31537Z" fill="#E33629"/>
<path d="M0.993038 16.0935C1.33252 14.3679 1.89614 12.6967 2.66882 11.1248L8.98499 16.1529C8.15872 18.6485 8.15872 21.3541 8.98499 23.8498C6.88062 25.5164 4.77523 27.1914 2.66882 28.8748C0.734513 24.9257 0.144583 20.4263 0.993038 16.0935Z" fill="#F8BD00"/>
<path d="M19.8861 16.2961H38.0211C38.6415 19.7866 38.4736 23.3764 37.5306 26.7899C36.6629 29.9289 34.9775 32.766 32.6556 34.9961C30.6172 33.3649 28.5697 31.7461 26.5314 30.1149C27.5419 29.4158 28.4045 28.5146 29.0673 27.4653C29.7301 26.416 30.1796 25.2403 30.3887 24.0086H19.8861C19.8831 21.4399 19.8861 18.868 19.8861 16.2961Z" fill="#587DBD"/>
<path d="M2.66553 28.8744C4.77193 27.2077 6.87732 25.5327 8.9817 23.8494C9.79585 26.3 11.3443 28.424 13.4058 29.9181C14.6916 30.8502 16.1526 31.4973 17.6958 31.8181C19.2163 32.1081 20.776 32.1081 22.2965 31.8181C23.8127 31.5549 25.2584 30.9695 26.5408 30.0994C28.5792 31.7306 30.6267 33.3494 32.6651 34.9806C30.4344 37.061 27.7152 38.5115 24.7736 39.19C21.5269 39.9728 18.1434 39.9353 14.914 39.0806C12.3598 38.3812 9.97399 37.1481 7.90615 35.4587C5.71746 33.6765 3.92984 31.4305 2.66553 28.8744Z" fill="#319F43"/>
</svg>
