<svg width="125" height="42" viewBox="0 0 125 42" fill="none" xmlns="http://www.w3.org/2000/svg">
<path d="M16.6835 0.423638L18.9609 41.3115H11.2812L11.0694 34.797H8.36824L8.15638 41.3115H0.476672L2.7541 0.423638H16.6835ZM8.63305 27.435H10.7516L10.0631 7.78557H9.37454L8.63305 27.435ZM20.0289 0.423638H30.3568C34.8057 0.423638 38.4072 4.02516 38.4072 8.47409V20.1261C38.4072 24.575 34.8057 28.1765 30.3568 28.1765H27.3908V41.3115H20.0289V0.423638ZM31.0453 18.9609V9.63929C31.0453 8.63298 30.2509 7.78557 29.2446 7.78557H27.3908V20.8146H29.2446C30.2509 20.8146 31.0453 19.9672 31.0453 18.9609ZM57.7009 0.423638V7.78557H52.1926V41.3115H44.8307V7.78557H39.2166V0.423638H44.8307H52.1926H57.7009ZM58.7688 41.3115V0.423638H66.1307V41.3115H58.7688ZM74.5073 41.3115H67.1453V0.423638H83.7229V7.78557H74.5073V17.2131H81.2866V24.575H74.5073V41.3115ZM104.859 0.423638L98.4509 31.3543V41.3115H91.089V31.3543L84.6804 0.423638H92.0423L94.5316 17.1601H95.0083L97.4976 0.423638H104.859ZM124.318 17.9546C124.318 20.6027 123.047 22.9331 121.087 24.3631L124.953 41.3115H116.85L113.884 26.005H113.301V41.3115H105.939V0.423638H116.267C120.716 0.423638 124.318 4.02516 124.318 8.47409V17.9546ZM113.301 7.78557V18.6431H115.102C116.108 18.6431 116.956 17.8486 116.956 16.7894V9.63929C116.956 8.63298 116.108 7.78557 115.102 7.78557H113.301Z" fill="black"/>
</svg>
